Coordinates
version=1
nRows=12
nColumns=23
inDegrees=yes

Units are S.I. units (second, meters, Newtons, ...)
If the header above contains a line with 'inDegrees', this indicates whether rotational values are in degrees (yes) or radians (no).

endheader
time	pelvis_tilt	pelvis_list	pelvis_rotation	pelvis_tx	pelvis_ty	pelvis_tz	hip_flexion_r	hip_adduction_r	hip_rotation_r	knee_angle_r	knee_angle_r_beta	ankle_angle_r	subtalar_angle_r	mtp_angle_r	hip_flexion_l	hip_adduction_l	hip_rotation_l	knee_angle_l	knee_angle_l_beta	ankle_angle_l	subtalar_angle_l	mtp_angle_l
      7.50000000	     -5.38240739	      2.79256825	      6.09333964	      2.16563232	      0.93624802	      0.98404472	     39.86664758	    -10.19184134	     -3.63593642	     89.18944135	      1.55664941	     -4.50022788	    -22.41518025	      0.00000000	      0.54832766	      8.95297781	      7.15381801	     30.97478435	      0.54061197	     16.09593029	    -10.36242642	      0.00000000
      7.50666667	     -5.54434631	      2.03296303	      5.11325475	      2.16731890	      0.93981994	      0.98511691	     41.18769517	     -8.72979477	     -3.57505017	     85.91187085	      1.49944501	     -3.93187942	    -22.85706207	      0.00000000	     -2.24499787	      7.73680303	      6.18687459	     28.42290065	      0.49607320	     13.41480471	     -9.94132974	      0.00000000
      7.51333333	     -5.84313128	      1.33880219	      4.20154090	      2.16912088	      0.94322617	      0.98618109	     42.40691825	     -7.39851525	     -3.66861429	     82.37414587	      1.43770006	     -3.42343773	    -23.27763282	      0.00000000	     -4.80751265	      6.66407829	      5.08326865	     25.92061328	      0.45240005	     10.22478964	     -9.53720232	      0.00000000
      7.52000000	     -6.20786296	      0.67615315	      3.41708180	      2.17103127	      0.94660411	      0.98716536	     43.42314022	     -6.19050017	     -3.96648762	     78.56837203	      1.37127678	     -2.85775306	    -23.49210832	      0.00000000	     -7.18395379	      5.69442883	      3.98654994	     23.53241892	      0.41071819	      6.65943961	     -9.08934529	      0.00000000
      7.52666667	     -6.83174041	      0.27455947	      2.58293650	      2.17282350	      0.94941877	      0.98837969	     44.60032550	     -5.18276073	     -4.13896642	     74.64852995	      1.30286263	     -2.16261957	    -23.36193818	      0.00000000	     -9.06281006	      5.04808838	      2.56951899	     21.44751545	      0.37432976	      2.83566007	     -8.53538424	      0.00000000
      7.53333333	     -7.12999277	     -0.36382990	      2.12627830	      2.17493189	      0.95295060	      0.98905369	     44.98981181	     -4.29089381	     -4.94952102	     70.30108879	      1.22698547	     -1.57093594	    -23.11540574	      0.00000000	    -11.16714875	      4.17912141	      1.56863036	     19.48569035	      0.34008945	     -1.33875915	     -8.26464997	      0.00000000
      7.54000000	     -7.61689957	     -0.76520667	      1.67970670	      2.17690032	      0.95599289	      0.98990642	     45.45081231	     -3.59579432	     -5.67836383	     65.84728733	      1.14925197	     -0.82737213	    -22.37101531	      0.00000000	    -12.73715891	      3.56510868	      0.35620858	     18.06099130	      0.31522376	     -5.52850282	     -7.98995745	      0.00000000
      7.54666667	     -8.12226539	     -1.04136577	      1.28068436	      2.17875526	      0.95887877	      0.99082250	     45.75189951	     -3.01517481	     -6.43146278	     61.23751677	      1.06879629	      0.02064032	    -21.17331490	      0.00000000	    -13.97787559	      3.08119863	     -0.95723402	     17.13917922	      0.29913511	     -9.62597183	     -7.80852266	      0.00000000
      7.55333333	     -8.74553499	     -1.13290445	      0.84796292	      2.18040054	      0.96130103	      0.99193693	     46.06938972	     -2.50757573	     -7.05811507	     56.57841948	      0.98747971	      1.05182175	    -19.40198467	      0.00000000	    -14.70252157	      2.77921303	     -2.46400460	     16.91762915	      0.29526833	    -13.41008329	     -7.77246978	      0.00000000
      7.56000000	     -9.01361430	     -1.38774058	      0.69543159	      2.18219766	      0.96414182	      0.99274759	     45.69776743	     -2.08635533	     -8.20241995	     51.69941192	      0.90232496	      2.16279109	    -16.96465942	      0.00000000	    -15.53287142	      2.23448712	     -3.75898541	     17.18841903	      0.29999451	    -16.95952281	     -7.98220760	      0.00000000
      7.56666667	     -9.31302640	     -1.55077582	      0.52017771	      2.18377115	      0.96651762	      0.99378967	     45.26405757	     -1.62546163	     -9.25006955	     46.84140774	      0.81753679	      3.44607496	    -13.99137407	      0.00000000	    -15.93138989	      1.73728191	     -5.13074709	     18.24544967	      0.31844317	    -19.82654523	     -8.38985918	      0.00000000
      7.57333333	     -9.54121241	     -1.70422710	      0.36663815	      2.18513656	      0.96851132	      0.99501855	     44.65564707	     -1.09241771	    -10.29641675	     42.04740328	      0.73386563	      4.83578202	    -10.50926446	      0.00000000	    -16.04814553	      1.17071310	     -6.51665021	     20.03749947	      0.34972034	    -22.00636818	     -8.97678220	      0.00000000
